<?xml version="1.0" encoding="UTF-8" standalone="no"?>
<!DOCTYPE svg PUBLIC "-//W3C//DTD SVG 1.1//EN"
 "http://www.w3.org/Graphics/SVG/1.1/DTD/svg11.dtd">
<!-- Generated by graphviz version 2.40.1 (20161225.0304)
 -->
<!-- Title: G Pages: 1 -->
<svg width="296pt" height="98pt"
 viewBox="0.00 0.00 296.29 98.00" xmlns="http://www.w3.org/2000/svg" xmlns:xlink="http://www.w3.org/1999/xlink">
<g id="graph0" class="graph" transform="scale(1 1) rotate(0) translate(4 94)">
<title>G</title>
<polygon fill="#ffffff" stroke="transparent" points="-4,4 -4,-94 292.2872,-94 292.2872,4 -4,4"/>
<!-- model -->
<g id="node1" class="node">
<title>model</title>
<polygon fill="none" stroke="#000000" points="184.6932,-70 116.6932,-70 112.6932,-66 112.6932,-20 180.6932,-20 184.6932,-24 184.6932,-70"/>
<polyline fill="none" stroke="#000000" points="180.6932,-66 112.6932,-66 "/>
<polyline fill="none" stroke="#000000" points="180.6932,-66 180.6932,-20 "/>
<polyline fill="none" stroke="#000000" points="180.6932,-66 184.6932,-70 "/>
<text text-anchor="middle" x="148.6932" y="-41.3" font-family="Times,serif" font-size="14.00" fill="#000000">model</text>
</g>
<!-- results -->
<g id="node3" class="node">
<title>results</title>
<ellipse fill="none" stroke="#000000" cx="254.4902" cy="-45" rx="33.5952" ry="18"/>
<text text-anchor="middle" x="254.4902" y="-41.3" font-family="Times,serif" font-size="14.00" fill="#000000">results</text>
</g>
<!-- model&#45;&gt;results -->
<g id="edge2" class="edge">
<title>model&#45;&gt;results</title>
<path fill="none" stroke="#000000" d="M184.8066,-45C193.0627,-45 201.9273,-45 210.4735,-45"/>
<polygon fill="#000000" stroke="#000000" points="210.6779,-48.5001 220.6778,-45 210.6778,-41.5001 210.6779,-48.5001"/>
</g>
<!-- inputs -->
<g id="node2" class="node">
<title>inputs</title>
<ellipse fill="none" stroke="#000000" cx="38.3466" cy="-72" rx="32.4942" ry="18"/>
<text text-anchor="middle" x="38.3466" y="-68.3" font-family="Times,serif" font-size="14.00" fill="#000000">inputs</text>
</g>
<!-- inputs&#45;&gt;model -->
<g id="edge1" class="edge">
<title>inputs&#45;&gt;model</title>
<path fill="none" stroke="#000000" d="M68.208,-64.6934C78.7724,-62.1085 90.9176,-59.1367 102.5174,-56.2985"/>
<polygon fill="#000000" stroke="#000000" points="103.6359,-59.6281 112.5174,-53.8516 101.9721,-52.8287 103.6359,-59.6281"/>
</g>
<!-- weights -->
<g id="node4" class="node">
<title>weights</title>
<ellipse fill="none" stroke="#000000" cx="38.3466" cy="-18" rx="38.1938" ry="18"/>
<text text-anchor="middle" x="38.3466" y="-14.3" font-family="Times,serif" font-size="14.00" fill="#000000">weights</text>
</g>
<!-- weights&#45;&gt;model -->
<g id="edge3" class="edge">
<title>weights&#45;&gt;model</title>
<path fill="none" stroke="#000000" d="M72.3546,-26.3212C81.8534,-28.6454 92.3387,-31.211 102.4171,-33.677"/>
<polygon fill="#000000" stroke="#000000" points="101.763,-37.1201 112.3084,-36.0972 103.4268,-30.3207 101.763,-37.1201"/>
</g>
</g>
</svg>
