<?xml version="1.0" encoding="UTF-8" standalone="no"?>
<!DOCTYPE svg PUBLIC "-//W3C//DTD SVG 1.1//EN"
 "http://www.w3.org/Graphics/SVG/1.1/DTD/svg11.dtd">
<!-- Generated by graphviz version 2.40.1 (20161225.0304)
 -->
<!-- Title: G Pages: 1 -->
<svg width="483pt" height="98pt"
 viewBox="0.00 0.00 483.08 98.00" xmlns="http://www.w3.org/2000/svg" xmlns:xlink="http://www.w3.org/1999/xlink">
<g id="graph0" class="graph" transform="scale(1 1) rotate(0) translate(4 94)">
<title>G</title>
<polygon fill="#ffffff" stroke="transparent" points="-4,4 -4,-94 479.0773,-94 479.0773,4 -4,4"/>
<!-- model -->
<g id="node1" class="node">
<title>model</title>
<polygon fill="none" stroke="#000000" points="185.6932,-77 117.6932,-77 113.6932,-73 113.6932,-27 181.6932,-27 185.6932,-31 185.6932,-77"/>
<polyline fill="none" stroke="#000000" points="181.6932,-73 113.6932,-73 "/>
<polyline fill="none" stroke="#000000" points="181.6932,-73 181.6932,-27 "/>
<polyline fill="none" stroke="#000000" points="181.6932,-73 185.6932,-77 "/>
<text text-anchor="middle" x="149.6932" y="-48.3" font-family="Times,serif" font-size="14.00" fill="#000000">model</text>
</g>
<!-- results -->
<g id="node3" class="node">
<title>results</title>
<ellipse fill="none" stroke="#000000" cx="292.4902" cy="-52" rx="33.5952" ry="18"/>
<text text-anchor="middle" x="292.4902" y="-48.3" font-family="Times,serif" font-size="14.00" fill="#000000">results</text>
</g>
<!-- model&#45;&gt;results -->
<g id="edge2" class="edge">
<title>model&#45;&gt;results</title>
<path fill="none" stroke="#000000" d="M185.7269,-52C204.7235,-52 228.1886,-52 248.278,-52"/>
<polygon fill="#000000" stroke="#000000" points="248.4342,-55.5001 258.4342,-52 248.4341,-48.5001 248.4342,-55.5001"/>
</g>
<!-- inputs -->
<g id="node2" class="node">
<title>inputs</title>
<ellipse fill="none" stroke="#000000" cx="38.3466" cy="-72" rx="32.4942" ry="18"/>
<text text-anchor="middle" x="38.3466" y="-68.3" font-family="Times,serif" font-size="14.00" fill="#000000">inputs</text>
</g>
<!-- inputs&#45;&gt;model -->
<g id="edge1" class="edge">
<title>inputs&#45;&gt;model</title>
<path fill="none" stroke="#000000" d="M69.3628,-66.4289C79.914,-64.5337 91.9459,-62.3725 103.4279,-60.3101"/>
<polygon fill="#000000" stroke="#000000" points="104.102,-63.7452 113.3257,-58.5323 102.8644,-56.8554 104.102,-63.7452"/>
</g>
<!-- performance -->
<g id="node5" class="node">
<title>performance</title>
<ellipse fill="none" stroke="#000000" cx="419.1822" cy="-52" rx="55.7903" ry="18"/>
<text text-anchor="middle" x="419.1822" y="-48.3" font-family="Times,serif" font-size="14.00" fill="#000000">performance</text>
</g>
<!-- results&#45;&gt;performance -->
<g id="edge4" class="edge">
<title>results&#45;&gt;performance</title>
<path fill="none" stroke="#000000" d="M326.4413,-52C334.7307,-52 343.8829,-52 353.1124,-52"/>
<polygon fill="#000000" stroke="#000000" points="353.1206,-55.5001 363.1205,-52 353.1205,-48.5001 353.1206,-55.5001"/>
</g>
<!-- weights -->
<g id="node4" class="node">
<title>weights</title>
<ellipse fill="none" stroke="#000000" cx="38.3466" cy="-18" rx="38.1938" ry="18"/>
<text text-anchor="middle" x="38.3466" y="-14.3" font-family="Times,serif" font-size="14.00" fill="#000000">weights</text>
</g>
<!-- weights&#45;&gt;model -->
<g id="edge3" class="edge">
<title>weights&#45;&gt;model</title>
<path fill="none" stroke="#000000" d="M70.5526,-27.8342C80.9847,-31.0197 92.7624,-34.616 103.982,-38.042"/>
<polygon fill="#000000" stroke="#000000" points="103.064,-41.4211 113.6503,-40.9942 105.1084,-34.7263 103.064,-41.4211"/>
</g>
<!-- performance&#45;&gt;weights -->
<g id="edge5" class="edge">
<title>performance&#45;&gt;weights</title>
<path fill="none" stroke="#000000" d="M380.7799,-38.6552C364.2203,-33.4733 344.5068,-28.0582 326.2872,-25 242.9542,-11.0123 144.1752,-12.4408 86.651,-15.0281"/>
<polygon fill="#000000" stroke="#000000" points="86.2233,-11.5445 76.4031,-15.5212 86.5598,-18.5364 86.2233,-11.5445"/>
<text text-anchor="middle" x="222.1932" y="-19.8" font-family="Times,serif" font-size="14.00" fill="#000000">update</text>
</g>
</g>
</svg>
