<?xml version="1.0" encoding="UTF-8" standalone="no"?>
<!DOCTYPE svg PUBLIC "-//W3C//DTD SVG 1.1//EN"
 "http://www.w3.org/Graphics/SVG/1.1/DTD/svg11.dtd">
<!-- Generated by graphviz version 2.40.1 (20161225.0304)
 -->
<!-- Title: G Pages: 1 -->
<svg width="489pt" height="134pt"
 viewBox="0.00 0.00 489.18 134.20" xmlns="http://www.w3.org/2000/svg" xmlns:xlink="http://www.w3.org/1999/xlink">
<g id="graph0" class="graph" transform="scale(1 1) rotate(0) translate(4 130.2026)">
<title>G</title>
<polygon fill="#ffffff" stroke="transparent" points="-4,4 -4,-130.2026 485.1822,-130.2026 485.1822,4 -4,4"/>
<!-- model -->
<g id="node1" class="node">
<title>model</title>
<polygon fill="none" stroke="#000000" points="217.0911,-79.2026 141.0911,-79.2026 137.0911,-75.2026 137.0911,-29.2026 213.0911,-29.2026 217.0911,-33.2026 217.0911,-79.2026"/>
<polyline fill="none" stroke="#000000" points="213.0911,-75.2026 137.0911,-75.2026 "/>
<polyline fill="none" stroke="#000000" points="213.0911,-75.2026 213.0911,-29.2026 "/>
<polyline fill="none" stroke="#000000" points="213.0911,-75.2026 217.0911,-79.2026 "/>
<text text-anchor="middle" x="177.0911" y="-50.5026" font-family="Times,serif" font-size="14.00" fill="#000000">architecture</text>
</g>
<!-- predictions -->
<g id="node3" class="node">
<title>predictions</title>
<ellipse fill="none" stroke="#000000" cx="340.1367" cy="-54.2026" rx="50.0912" ry="18"/>
<text text-anchor="middle" x="340.1367" y="-50.5026" font-family="Times,serif" font-size="14.00" fill="#000000">predictions</text>
</g>
<!-- model&#45;&gt;predictions -->
<g id="edge2" class="edge">
<title>model&#45;&gt;predictions</title>
<path fill="none" stroke="#000000" d="M217.3945,-54.2026C236.277,-54.2026 259.1631,-54.2026 280.0334,-54.2026"/>
<polygon fill="#000000" stroke="#000000" points="280.0905,-57.7027 290.0905,-54.2026 280.0905,-50.7027 280.0905,-57.7027"/>
</g>
<!-- inputs -->
<g id="node2" class="node">
<title>inputs</title>
<ellipse fill="none" stroke="#000000" cx="50.0456" cy="-74.2026" rx="32.4942" ry="18"/>
<text text-anchor="middle" x="50.0456" y="-70.5026" font-family="Times,serif" font-size="14.00" fill="#000000">inputs</text>
</g>
<!-- inputs&#45;&gt;model -->
<g id="edge1" class="edge">
<title>inputs&#45;&gt;model</title>
<path fill="none" stroke="#000000" d="M81.4501,-69.2588C95.1932,-67.0953 111.6581,-64.5034 127.0224,-62.0847"/>
<polygon fill="#000000" stroke="#000000" points="127.5863,-65.5391 136.9204,-60.5265 126.4977,-58.6242 127.5863,-65.5391"/>
</g>
<!-- loss -->
<g id="node6" class="node">
<title>loss</title>
<ellipse fill="none" stroke="#000000" cx="454.1822" cy="-83.2026" rx="27" ry="18"/>
<text text-anchor="middle" x="454.1822" y="-79.5026" font-family="Times,serif" font-size="14.00" fill="#000000">loss</text>
</g>
<!-- predictions&#45;&gt;loss -->
<g id="edge5" class="edge">
<title>predictions&#45;&gt;loss</title>
<path fill="none" stroke="#000000" d="M381.3097,-64.6723C393.5479,-67.7843 406.8441,-71.1653 418.6879,-74.177"/>
<polygon fill="#000000" stroke="#000000" points="418.105,-77.6401 428.6592,-76.7125 419.8302,-70.856 418.105,-77.6401"/>
</g>
<!-- parameters -->
<g id="node4" class="node">
<title>parameters</title>
<ellipse fill="none" stroke="#000000" cx="50.0456" cy="-20.2026" rx="50.0912" ry="18"/>
<text text-anchor="middle" x="50.0456" y="-16.5026" font-family="Times,serif" font-size="14.00" fill="#000000">parameters</text>
</g>
<!-- parameters&#45;&gt;model -->
<g id="edge3" class="edge">
<title>parameters&#45;&gt;model</title>
<path fill="none" stroke="#000000" d="M90.2436,-30.9605C101.8295,-34.0611 114.6176,-37.4834 126.7368,-40.7268"/>
<polygon fill="#000000" stroke="#000000" points="126.1536,-44.1938 136.7185,-43.3981 127.9633,-37.4318 126.1536,-44.1938"/>
</g>
<!-- labels -->
<g id="node5" class="node">
<title>labels</title>
<ellipse fill="none" stroke="#000000" cx="340.1367" cy="-108.2026" rx="31.3957" ry="18"/>
<text text-anchor="middle" x="340.1367" y="-104.5026" font-family="Times,serif" font-size="14.00" fill="#000000">labels</text>
</g>
<!-- labels&#45;&gt;loss -->
<g id="edge4" class="edge">
<title>labels&#45;&gt;loss</title>
<path fill="none" stroke="#000000" d="M369.5062,-101.7645C384.4486,-98.489 402.7335,-94.4808 418.483,-91.0283"/>
<polygon fill="#000000" stroke="#000000" points="419.3874,-94.4132 428.4059,-88.8531 417.8884,-87.5756 419.3874,-94.4132"/>
</g>
<!-- loss&#45;&gt;parameters -->
<g id="edge6" class="edge">
<title>loss&#45;&gt;parameters</title>
<path fill="none" stroke="#000000" d="M441.3968,-67.1028C429.6802,-53.7017 411.0259,-35.5188 390.1822,-27.2026 295.3447,10.6354 173.4836,.5619 104.3447,-9.9693"/>
<polygon fill="#000000" stroke="#000000" points="103.4538,-6.5667 94.1247,-11.5883 104.5492,-13.4805 103.4538,-6.5667"/>
<text text-anchor="middle" x="253.5911" y="-6.0026" font-family="Times,serif" font-size="14.00" fill="#000000">update</text>
</g>
</g>
</svg>
