<?xml version="1.0" encoding="UTF-8" standalone="no"?>
<!DOCTYPE svg PUBLIC "-//W3C//DTD SVG 1.1//EN"
 "http://www.w3.org/Graphics/SVG/1.1/DTD/svg11.dtd">
<!-- Generated by graphviz version 2.40.1 (20161225.0304)
 -->
<!-- Title: G Pages: 1 -->
<svg width="285pt" height="58pt"
 viewBox="0.00 0.00 284.59 58.00" xmlns="http://www.w3.org/2000/svg" xmlns:xlink="http://www.w3.org/1999/xlink">
<g id="graph0" class="graph" transform="scale(1 1) rotate(0) translate(4 54)">
<title>G</title>
<polygon fill="#ffffff" stroke="transparent" points="-4,4 -4,-54 280.5882,-54 280.5882,4 -4,4"/>
<!-- model -->
<g id="node1" class="node">
<title>model</title>
<polygon fill="none" stroke="#000000" points="172.9942,-50 104.9942,-50 100.9942,-46 100.9942,0 168.9942,0 172.9942,-4 172.9942,-50"/>
<polyline fill="none" stroke="#000000" points="168.9942,-46 100.9942,-46 "/>
<polyline fill="none" stroke="#000000" points="168.9942,-46 168.9942,0 "/>
<polyline fill="none" stroke="#000000" points="168.9942,-46 172.9942,-50 "/>
<text text-anchor="middle" x="136.9942" y="-21.3" font-family="Times,serif" font-size="14.00" fill="#000000">model</text>
</g>
<!-- results -->
<g id="node3" class="node">
<title>results</title>
<ellipse fill="none" stroke="#000000" cx="242.7912" cy="-25" rx="33.5952" ry="18"/>
<text text-anchor="middle" x="242.7912" y="-21.3" font-family="Times,serif" font-size="14.00" fill="#000000">results</text>
</g>
<!-- model&#45;&gt;results -->
<g id="edge2" class="edge">
<title>model&#45;&gt;results</title>
<path fill="none" stroke="#000000" d="M173.1077,-25C181.3637,-25 190.2284,-25 198.7746,-25"/>
<polygon fill="#000000" stroke="#000000" points="198.9789,-28.5001 208.9789,-25 198.9788,-21.5001 198.9789,-28.5001"/>
</g>
<!-- inputs -->
<g id="node2" class="node">
<title>inputs</title>
<ellipse fill="none" stroke="#000000" cx="32.4971" cy="-25" rx="32.4942" ry="18"/>
<text text-anchor="middle" x="32.4971" y="-21.3" font-family="Times,serif" font-size="14.00" fill="#000000">inputs</text>
</g>
<!-- inputs&#45;&gt;model -->
<g id="edge1" class="edge">
<title>inputs&#45;&gt;model</title>
<path fill="none" stroke="#000000" d="M65.2739,-25C73.2739,-25 81.9845,-25 90.4897,-25"/>
<polygon fill="#000000" stroke="#000000" points="90.7006,-28.5001 100.7006,-25 90.7005,-21.5001 90.7006,-28.5001"/>
</g>
</g>
</svg>
